<svg enable-background="new 0 0 64 64" height="64" viewBox="0 0 64 64" width="64" xmlns="http://www.w3.org/2000/svg"><path d="m32 52.789-12-18c-1.5-2.789-4-6.758-4-10.789 0-8.836 7.164-16 16-16s16 7.164 16 16c0 4.031-2.055 8-4 10.789z" fill="#ff0000"/><g fill="#394240"><path d="m32 0c-13.254 0-24 10.746-24 24 0 5.219 1.711 10.008 4.555 13.93.051.094.059.199.117.289l16 24c.742 1.113 1.992 1.781 3.328 1.781s2.586-.668 3.328-1.781l16-24c.059-.09.066-.195.117-.289 2.844-3.922 4.555-8.711 4.555-13.93 0-13.254-10.746-24-24-24zm12 34.789-12 18-12-18c-1.5-2.789-4-6.758-4-10.789 0-8.836 7.164-16 16-16s16 7.164 16 16c0 4.031-2.055 8-4 10.789z"/><circle cx="32" cy="24" r="8"/></g></svg>